<?xml version="1.0" standalone="no"?>
<!DOCTYPE svg PUBLIC "-//W3C//DTD SVG 20010904//EN"
 "http://www.w3.org/TR/2001/REC-SVG-20010904/DTD/svg10.dtd">
<svg version="1.0" xmlns="http://www.w3.org/2000/svg"
 width="920.000000pt" height="972.000000pt" viewBox="0 0 920.000000 972.000000"
 preserveAspectRatio="xMidYMid meet">

<g transform="translate(0.000000,972.000000) scale(0.100000,-0.100000)"
fill="#000000" stroke="none">
<path d="M7505 8393 c-44 -7 -93 -17 -110 -22 -16 -5 -52 -12 -80 -16 -27 -3
-70 -10 -95 -16 -25 -5 -88 -18 -140 -28 -109 -22 -225 -52 -289 -75 -24 -9
-70 -16 -102 -16 -51 0 -59 -3 -59 -19 0 -42 72 -61 140 -36 90 32 220 67 405
107 28 6 70 16 95 24 44 12 151 27 283 39 41 4 67 11 67 18 1 15 70 -58 70
-73 0 -31 -152 -77 -380 -115 -198 -33 -269 -47 -414 -82 -84 -20 -178 -36
-215 -37 l-66 -1 -3 -40 c-4 -52 -15 -63 -92 -98 -68 -30 -88 -48 -121 -109
-14 -29 -26 -38 -45 -38 -58 0 -165 -78 -184 -135 -9 -28 -19 -37 -58 -50 -66
-22 -88 -44 -97 -96 -16 -97 -68 -159 -132 -159 -23 0 -118 44 -127 59 -10 15
-46 14 -47 -1 -6 -65 66 -118 161 -118 57 0 65 -12 35 -48 -20 -24 -32 -31
-49 -26 -22 5 -56 -16 -56 -36 0 -14 30 -40 47 -40 10 0 13 -5 8 -17 -4 -10
-24 -67 -45 -128 -21 -60 -52 -149 -69 -197 -17 -49 -31 -92 -31 -98 0 -5 -14
-39 -30 -74 -17 -35 -37 -87 -46 -116 -11 -38 -19 -49 -26 -42 -15 15 5 135
33 199 12 26 29 77 39 113 10 36 32 103 49 149 36 97 35 91 17 91 -13 0 -58
-97 -91 -200 -10 -30 -34 -91 -53 -135 -28 -64 -37 -99 -43 -175 -4 -53 -16
-117 -27 -145 -11 -27 -23 -70 -27 -95 -9 -53 -41 -140 -88 -235 -36 -74 -73
-196 -131 -440 -40 -166 -43 -203 -21 -211 12 -5 14 -17 9 -60 -6 -45 -4 -55
10 -60 25 -9 37 7 43 57 3 24 14 54 25 65 19 21 35 69 65 189 8 33 28 103 43
155 16 52 41 154 55 225 14 72 30 139 35 150 25 54 70 177 70 190 0 8 11 40
25 71 14 31 25 66 25 77 0 11 18 61 40 111 22 50 46 114 54 141 19 68 59 194
92 285 14 41 27 99 29 128 2 49 5 55 45 84 l42 32 -6 58 c-5 48 -3 58 10 58
28 0 63 50 74 108 15 73 41 102 91 102 44 0 79 35 79 79 0 44 49 82 122 96 55
10 65 15 77 40 45 99 89 132 206 157 27 6 55 14 60 18 13 10 130 40 156 40 10
0 51 11 91 24 72 24 148 40 238 51 25 3 68 9 95 14 28 5 88 15 135 21 47 7 95
16 108 21 13 5 53 9 90 9 145 0 192 26 192 103 0 49 -40 139 -77 175 -28 26
-25 25 -58 10 -21 -10 -29 -8 -48 9 -21 19 -25 20 -102 6z m142 -229 c-3 -3
-12 -4 -19 -1 -8 3 -5 6 6 6 11 1 17 -2 13 -5z m-2198 -2271 c-9 -57 -41 -167
-59 -205 -14 -30 -37 -39 -25 -10 10 25 36 121 45 168 10 46 30 94 40 94 4 0
3 -21 -1 -47z"/>
<path d="M6404 8200 c-36 -33 -69 -60 -73 -60 -4 0 -17 11 -29 25 -12 14 -28
25 -36 25 -14 0 -22 -9 -99 -109 -30 -38 -48 -51 -82 -60 -38 -9 -43 -15 -49
-45 -9 -46 -33 -74 -87 -100 -40 -19 -44 -25 -49 -65 -5 -41 -8 -45 -50 -61
-51 -19 -79 -61 -80 -119 0 -18 -9 -49 -21 -67 -27 -45 -23 -90 9 -86 13 2 35
-7 51 -21 44 -37 88 -52 106 -37 21 17 19 50 -3 50 -9 0 -34 14 -55 31 -31 25
-37 36 -36 67 2 116 85 170 100 66 13 -95 55 -150 84 -110 10 13 8 25 -11 63
-13 27 -24 58 -24 70 0 12 -5 25 -10 28 -7 4 -9 25 -5 53 10 68 14 79 33 87
23 9 42 -21 42 -65 0 -77 31 -120 74 -104 21 8 20 23 -1 46 -23 26 -27 232 -5
254 16 17 18 17 43 4 10 -6 19 -18 19 -26 0 -9 10 -34 22 -55 26 -47 60 -59
88 -34 26 24 25 34 -5 45 -30 11 -55 63 -55 114 0 34 34 106 50 106 24 0 70
-74 81 -129 7 -35 20 -68 31 -78 19 -17 21 -17 39 6 24 30 24 47 -1 78 -12 16
-20 41 -20 66 0 33 8 49 46 93 41 48 50 54 84 54 28 0 42 5 49 18 15 27 -5 42
-56 42 -38 0 -50 -6 -109 -60z"/>
<path d="M6466 8068 c-7 -68 0 -81 35 -76 19 2 24 9 22 28 -4 56 -26 110 -46
110 -2 0 -7 -28 -11 -62z"/>
<path d="M2990 7183 c-191 -31 -211 -37 -330 -89 -69 -30 -135 -60 -146 -67
-102 -58 -269 -229 -365 -374 -69 -105 -102 -179 -150 -341 -31 -103 -36 -162
-17 -224 10 -34 9 -44 -12 -85 -34 -67 -49 -226 -27 -285 8 -24 18 -71 22
-106 3 -35 15 -84 26 -110 41 -95 69 -195 85 -302 8 -55 16 -72 59 -119 95
-103 180 -209 196 -245 10 -24 51 -72 97 -116 63 -59 103 -86 188 -129 60 -29
123 -60 139 -69 17 -8 48 -24 70 -35 22 -10 47 -22 55 -26 10 -5 17 -29 20
-71 4 -45 10 -66 22 -74 9 -5 21 -7 25 -2 13 13 8 203 -10 336 -9 69 -20 155
-23 193 -6 60 -9 67 -28 67 -13 0 -28 -12 -39 -30 -19 -32 -17 -67 9 -150 13
-44 36 -191 30 -198 -2 -1 -71 31 -155 73 -83 41 -155 75 -161 75 -5 0 -33 21
-62 48 -29 26 -68 58 -85 70 -18 13 -33 29 -33 37 0 25 -72 150 -111 192 -21
23 -45 57 -54 75 -8 18 -31 62 -50 98 -18 36 -39 81 -46 100 -6 19 -19 53 -29
75 -10 22 -20 71 -24 109 -4 38 -13 84 -21 104 -8 19 -15 47 -15 63 0 16 -10
57 -21 90 -26 75 -22 134 16 212 17 36 23 64 20 83 -13 69 108 404 179 499 13
17 30 44 39 60 27 53 179 213 252 265 79 57 203 109 279 117 28 2 65 9 83 15
50 15 269 -31 329 -69 11 -7 62 -31 112 -52 50 -21 105 -50 124 -64 18 -13 53
-35 78 -47 25 -13 58 -33 73 -46 16 -13 35 -24 43 -24 14 0 106 -90 137 -135
15 -21 22 -24 33 -14 47 39 -40 149 -180 230 -42 24 -107 63 -144 87 -37 23
-85 48 -107 54 -22 6 -85 33 -140 59 -80 39 -121 52 -204 65 -96 15 -111 15
-205 -1 -117 -19 -228 -60 -305 -113 -30 -20 -69 -47 -87 -59 -18 -12 -45 -39
-61 -59 -15 -20 -51 -60 -79 -90 -28 -29 -59 -70 -69 -91 -10 -21 -32 -59 -50
-84 -18 -25 -52 -90 -75 -143 -49 -110 -76 -144 -64 -80 16 89 64 195 133 295
97 142 143 201 183 233 18 14 38 31 43 36 44 44 177 132 255 169 94 43 228 75
408 96 63 7 85 20 61 36 -14 9 -92 10 -139 2z m-969 -1019 c-16 -36 -21 -27
-14 26 6 40 7 42 16 22 7 -15 6 -30 -2 -48z"/>
<path d="M5602 7161 c-10 -17 -24 -50 -31 -74 -7 -23 -21 -69 -32 -102 -11
-33 -35 -118 -54 -190 -37 -144 -91 -299 -123 -360 -12 -22 -22 -43 -22 -48 0
-4 -20 -59 -45 -123 -25 -63 -45 -124 -45 -136 0 -12 -9 -47 -20 -77 -11 -31
-28 -100 -39 -153 -11 -53 -27 -114 -36 -134 -13 -33 -18 -35 -42 -29 -16 4
-71 11 -123 15 -52 5 -140 13 -195 20 -126 13 -411 27 -431 20 -13 -5 -12 -9
5 -24 17 -15 48 -20 193 -27 313 -16 538 -45 554 -71 5 -8 -12 -77 -52 -208
-25 -83 -46 -191 -40 -205 16 -42 52 1 61 72 4 31 16 86 27 121 11 36 26 92
33 126 7 33 25 95 39 136 14 41 32 100 40 130 17 67 41 156 72 270 24 90 62
197 87 246 8 16 29 67 47 114 18 47 45 119 61 160 15 41 42 129 58 196 17 66
39 140 50 165 28 65 48 176 34 190 -9 9 -17 3 -31 -20z"/>
<path d="M3290 7127 c25 -23 119 -58 183 -68 44 -7 70 -18 94 -39 18 -17 50
-38 71 -49 20 -10 71 -51 112 -90 41 -40 83 -79 94 -89 22 -21 78 -92 126
-161 27 -39 41 -50 63 -51 15 0 27 2 27 4 0 3 -13 24 -28 48 -16 24 -45 68
-66 99 -20 31 -78 93 -129 138 -50 45 -99 88 -107 95 -8 7 -35 26 -60 41 -25
15 -62 43 -83 61 -30 28 -45 34 -81 34 -24 0 -63 9 -87 20 -52 23 -153 29
-129 7z"/>
<path d="M2835 6841 c-50 -9 -119 -54 -144 -95 -27 -44 -37 -146 -18 -182 27
-53 67 -257 67 -341 0 -36 9 -92 21 -130 36 -116 72 -213 80 -218 4 -3 5 -13
2 -23 -9 -36 99 -58 142 -29 11 8 54 22 95 32 41 9 86 21 99 27 13 5 26 7 28
4 10 -10 -18 -44 -47 -56 -24 -10 -29 -17 -24 -34 3 -11 10 -25 14 -30 13 -14
88 4 127 32 55 37 372 198 408 207 16 3 51 22 77 41 28 20 60 34 77 34 21 0
39 12 70 45 46 50 47 52 28 74 -8 9 -19 42 -26 74 -19 88 -99 200 -181 255
-59 39 -69 43 -112 38 -47 -5 -143 -52 -186 -90 -13 -12 -36 -46 -51 -76 -15
-30 -33 -64 -39 -75 -7 -11 -30 -67 -52 -125 -70 -179 -111 -260 -132 -260
-10 0 -32 -10 -48 -21 -48 -36 -75 -8 -51 53 5 13 14 41 20 63 36 136 78 257
131 379 33 77 60 145 60 153 0 7 11 23 25 35 33 29 32 65 -4 115 -44 61 -95
95 -154 104 -29 4 -79 13 -112 18 -65 12 -128 12 -190 2z m213 -62 c107 -21
116 -24 163 -66 51 -46 60 -67 34 -77 -8 -3 -15 -17 -15 -31 0 -14 -7 -42 -16
-63 -9 -20 -27 -68 -41 -107 -13 -38 -31 -84 -38 -100 -17 -38 -65 -202 -65
-223 0 -19 -99 -214 -114 -224 -6 -4 -20 -8 -32 -8 -45 0 -144 263 -144 383 0
61 -19 154 -65 311 -22 74 -13 113 37 164 63 65 123 73 296 41z m630 -293 c51
-26 89 -63 142 -140 36 -53 52 -135 32 -172 -6 -11 -44 -37 -86 -58 -42 -20
-79 -44 -83 -51 -5 -7 -33 -23 -63 -35 -30 -12 -74 -33 -98 -46 -24 -14 -47
-24 -53 -22 -10 3 73 87 194 195 55 50 72 83 42 83 -8 0 -52 -33 -96 -72 -45
-40 -98 -86 -118 -102 -62 -50 -131 -120 -131 -132 0 -16 -20 -30 -53 -38
l-28 -7 32 47 c18 26 39 55 48 64 9 9 41 49 71 88 30 40 58 72 62 72 4 0 23
20 44 46 33 40 36 47 22 60 -13 14 -23 7 -87 -62 -40 -43 -87 -98 -104 -123
-41 -62 -127 -161 -138 -161 -5 0 1 19 14 43 13 23 34 74 47 112 41 124 163
364 185 365 6 0 35 16 65 35 66 41 77 42 138 11z m-404 -630 c-6 -16 -24 -23
-24 -8 0 10 22 33 27 28 2 -2 1 -11 -3 -20z"/>
<path d="M2953 6486 c3 -8 3 -16 -1 -18 -4 -2 -17 -24 -29 -50 -19 -40 -22
-65 -24 -175 -2 -227 31 -339 82 -277 11 13 11 17 -3 25 -11 6 -19 37 -28 108
-12 94 -7 204 16 364 4 25 2 37 -6 37 -7 0 -10 -6 -7 -14z"/>
<path d="M4056 6541 c-6 -9 71 -181 103 -230 9 -14 21 -48 27 -75 6 -28 19
-78 29 -111 15 -49 18 -94 16 -249 -1 -103 -6 -196 -11 -206 -6 -10 -10 -31
-10 -45 0 -31 -16 -65 -31 -65 -11 0 -9 26 16 155 28 150 10 367 -41 489 -16
38 -34 71 -40 73 -19 6 -22 -19 -9 -67 33 -113 60 -460 37 -474 -6 -3 -13 7
-17 26 -3 18 -15 69 -25 113 -10 44 -21 109 -25 144 -4 35 -14 80 -22 100 -9
20 -17 68 -20 106 -6 94 -14 120 -57 188 -25 39 -43 57 -57 57 -17 0 -19 -4
-13 -22 4 -13 20 -40 36 -60 38 -48 48 -86 48 -176 0 -45 6 -84 15 -102 8 -16
19 -69 24 -117 5 -48 18 -110 28 -138 32 -89 13 -291 -36 -383 -6 -11 -18 -41
-27 -67 -14 -42 -14 -49 -1 -62 22 -22 34 -10 51 51 25 85 52 140 60 121 16
-42 6 -127 -20 -171 l-26 -44 47 0 c38 0 48 4 52 19 3 12 11 17 19 14 34 -13
79 64 98 166 l12 66 110 -3 c60 -2 140 -7 178 -12 77 -9 98 -5 94 19 -3 14
-26 16 -183 19 -99 1 -183 6 -188 11 -4 4 -10 112 -12 238 -1 127 -8 246 -14
264 -5 19 -20 75 -32 124 -12 50 -29 103 -38 120 -9 16 -36 67 -61 114 -42 79
-69 106 -84 82z m124 -1030 c-5 -11 -15 -32 -21 -48 l-11 -28 -10 25 c-14 38
-2 70 28 70 21 0 23 -3 14 -19z"/>
<path d="M2315 6522 c-59 -36 -109 -145 -165 -352 -26 -99 -25 -110 10 -158
55 -77 144 -116 205 -91 17 7 33 12 36 11 3 -1 4 10 1 24 -4 21 -9 24 -26 19
-60 -19 -72 -17 -124 24 -70 56 -74 77 -33 221 35 126 53 158 109 200 73 55
86 49 153 -75 28 -53 57 -99 64 -102 16 -6 29 -38 50 -123 9 -35 29 -85 45
-111 17 -25 30 -52 30 -60 0 -8 10 -30 22 -49 17 -26 22 -51 23 -95 0 -54 2
-60 22 -63 17 -3 24 3 29 23 9 38 -2 109 -25 153 -11 20 -23 49 -25 63 -3 14
-17 38 -31 55 -28 32 -28 32 -50 129 -11 49 -27 84 -54 120 -21 28 -50 74 -65
103 -34 67 -82 122 -123 138 -41 18 -42 18 -78 -4z"/>
<path d="M2440 6088 c1 -33 21 -64 60 -93 59 -44 70 -48 70 -26 0 19 -105 141
-122 141 -4 0 -8 -10 -8 -22z"/>
<path d="M3800 5941 c-25 -9 -66 -26 -91 -39 -25 -12 -51 -22 -59 -22 -7 0
-47 -20 -89 -44 -42 -24 -101 -52 -131 -64 -45 -17 -191 -80 -197 -86 0 0 -4
-22 -8 -47 l-7 -46 59 -36 c46 -28 74 -38 129 -43 44 -4 89 -17 124 -34 47
-23 72 -28 168 -33 68 -3 125 -2 143 5 34 12 64 58 105 163 24 61 28 84 28
183 1 113 1 114 -27 138 -33 28 -79 30 -147 5z m99 -40 c17 -11 31 -140 21
-187 -5 -20 -17 -46 -28 -57 -10 -12 -25 -38 -32 -57 -7 -19 -27 -50 -44 -68
l-31 -33 -85 7 c-51 4 -119 18 -170 34 -47 16 -105 32 -129 35 -23 4 -65 21
-92 38 -46 28 -48 31 -34 48 9 9 26 19 38 22 47 11 196 74 267 113 41 22 102
48 135 58 33 10 69 24 80 31 37 23 82 30 104 16z"/>
<path d="M2410 5908 c0 -25 53 -78 107 -107 61 -34 99 -39 128 -18 23 17 12
37 -20 37 -30 0 -83 24 -150 68 -54 35 -65 38 -65 20z"/>
<path d="M2096 5825 c-9 -9 -21 -35 -27 -58 -10 -37 -9 -47 10 -82 12 -22 24
-69 27 -105 11 -118 63 -245 111 -271 16 -8 55 -14 97 -14 65 1 75 4 126 39
30 21 58 44 63 51 13 23 -15 30 -33 8 -23 -28 -122 -56 -172 -48 -21 4 -50 17
-64 28 -35 31 -84 158 -84 218 0 26 -7 68 -15 93 -19 55 -13 71 32 89 43 17
107 8 214 -28 41 -14 97 -32 124 -39 65 -17 134 -53 142 -73 13 -34 -11 -48
-73 -45 -68 4 -275 39 -312 53 -35 14 -49 -4 -23 -28 23 -22 73 -35 226 -61
97 -16 100 -18 103 -44 4 -38 32 -36 76 3 37 32 56 79 56 136 0 29 -5 35 -50
58 -28 14 -78 32 -113 41 -34 8 -98 26 -142 39 -163 50 -185 55 -234 55 -31 0
-55 -6 -65 -15z"/>
<path d="M2988 5733 c-38 -6 -88 -66 -88 -106 0 -46 57 -126 121 -170 40 -27
78 -42 144 -57 50 -11 115 -27 145 -35 59 -16 137 -20 158 -7 13 9 -50 30
-245 80 -87 23 -113 35 -169 77 -96 72 -105 97 -40 109 41 8 79 54 74 89 -2
18 -10 22 -38 23 -19 1 -47 -1 -62 -3z"/>
<path d="M5555 5610 c-8 -24 1 -40 21 -40 8 0 25 -7 38 -15 13 -8 49 -22 82
-31 57 -15 217 -95 229 -114 11 -17 -6 -52 -21 -46 -8 3 -21 9 -29 12 -11 4
-15 -1 -15 -18 0 -14 -8 -32 -17 -41 -26 -23 -105 -55 -157 -62 -35 -6 -46
-12 -46 -25 0 -34 55 -33 143 4 82 34 177 54 177 36 0 -23 -21 -59 -37 -64
-10 -4 -40 -26 -68 -51 -71 -64 -120 -96 -157 -104 -45 -9 -44 -35 2 -39 45
-4 141 58 206 132 24 27 45 48 48 45 11 -11 -17 -340 -38 -451 -13 -68 -27
-154 -30 -193 -10 -112 -28 -209 -42 -225 -7 -9 -12 -45 -12 -90 -1 -83 -14
-130 -36 -130 -9 0 -33 -24 -54 -52 -22 -29 -70 -82 -106 -117 -37 -35 -65
-69 -63 -75 9 -27 39 -10 130 75 105 98 114 98 82 0 -14 -42 -60 -250 -86
-391 -15 -76 -38 -120 -129 -246 -46 -65 -75 -113 -69 -118 17 -19 60 14 99
76 71 114 69 113 66 32 -2 -77 -11 -96 -75 -168 -54 -60 -121 -147 -121 -157
0 -5 11 -9 24 -9 20 0 36 16 77 75 75 106 80 101 48 -45 -6 -30 -11 -68 -9
-85 13 -152 -33 -521 -66 -532 -22 -7 -32 49 -17 97 8 25 16 54 17 65 2 11 9
50 16 86 13 63 9 119 -9 119 -4 0 -12 -33 -18 -72 -6 -40 -21 -117 -33 -171
-23 -95 -23 -100 -7 -145 10 -26 17 -58 17 -71 0 -21 -28 -117 -89 -311 -23
-73 -15 -167 17 -188 16 -10 19 -19 13 -35 -5 -12 -11 -46 -15 -76 -11 -87
-55 -260 -76 -301 -11 -22 -20 -53 -20 -69 0 -38 -47 -78 -152 -128 -62 -29
-78 -41 -78 -58 0 -37 -30 -52 -125 -65 -195 -25 -236 -29 -249 -24 -17 7 -70
-36 -58 -48 17 -17 420 18 505 44 37 11 39 14 34 44 -5 31 -2 35 71 87 42 31
87 65 100 76 28 26 29 26 36 -4 4 -16 21 -32 46 -45 22 -11 40 -24 40 -28 0
-5 -27 -6 -60 -4 -46 3 -60 1 -60 -9 0 -31 21 -39 129 -56 97 -14 114 -15 122
-2 13 21 12 25 -28 64 l-36 35 51 0 c32 0 54 -5 59 -13 13 -22 61 -26 182 -17
119 8 149 19 110 40 -16 9 -51 11 -116 7 -53 -4 -93 -3 -93 3 0 5 -8 11 -17
14 -35 11 -256 46 -289 46 -31 0 -34 2 -24 19 14 28 13 31 -16 31 -22 0 -24 3
-18 23 3 12 14 33 24 47 26 37 90 243 83 268 -3 13 3 36 16 57 22 38 27 80 11
90 -13 8 -12 77 1 135 6 25 14 70 19 100 5 30 23 99 41 152 33 97 34 123 4 98
-13 -11 -15 -9 -15 11 0 13 7 49 16 79 38 132 55 228 54 309 -1 86 23 288 41
351 34 119 49 222 49 352 0 137 9 199 38 271 13 31 13 44 4 72 -7 18 -10 52
-7 76 17 124 29 176 47 195 14 16 22 46 29 115 11 111 22 153 43 175 9 8 16
26 16 40 0 13 6 41 14 61 7 21 21 92 31 158 9 66 28 191 42 277 18 119 22 162
14 177 -6 11 -9 37 -5 58 7 51 -12 308 -28 357 -9 27 -26 49 -63 76 -76 56
-164 100 -200 100 -18 0 -57 11 -87 25 -64 30 -75 31 -83 5z m-59 -3612 c-2
-7 -10 -41 -17 -76 -6 -35 -15 -58 -19 -52 -4 7 -1 33 6 58 8 25 12 48 9 50
-3 3 0 11 6 19 14 16 19 17 15 1z"/>
<path d="M2753 5520 c-13 -15 -23 -41 -23 -56 0 -58 22 -161 45 -209 13 -27
26 -79 30 -115 8 -83 13 -100 30 -100 22 0 27 69 10 162 -9 52 -12 109 -9 145
6 51 4 60 -15 77 -16 15 -21 31 -21 73 0 61 -13 67 -47 23z"/>
<path d="M4340 5511 c-20 -14 -9 -22 39 -28 52 -7 43 -23 -14 -23 -27 0 -45
-5 -48 -14 -7 -18 21 -26 95 -26 31 0 59 -4 63 -10 9 -15 35 0 35 21 0 11 -7
22 -15 25 -31 12 -14 26 24 19 39 -6 63 7 45 25 -14 12 -207 22 -224 11z"/>
<path d="M5712 5471 c-9 -5 -11 -19 -7 -43 6 -32 3 -37 -37 -70 -24 -19 -86
-52 -138 -73 -207 -83 -171 -77 -545 -87 -234 -7 -417 -6 -585 1 -135 6 -260
11 -277 11 -29 0 -33 3 -33 25 0 30 -4 31 -30 5 -23 -23 -43 -24 -170 -5 -194
29 -222 35 -248 55 -28 23 -48 14 -38 -17 9 -28 59 -53 108 -53 23 0 63 -8 88
-17 26 -9 83 -17 135 -19 50 -1 93 -3 98 -3 18 -2 3 -46 -56 -161 -35 -68 -69
-126 -76 -128 -20 -7 -4 34 35 93 19 27 34 60 34 72 0 44 -67 51 -109 12 -26
-25 -27 -43 -1 -67 20 -19 20 -19 -7 -73 -16 -30 -65 -105 -110 -166 -71 -96
-91 -116 -147 -147 -35 -20 -76 -36 -90 -36 -13 0 -28 -4 -31 -10 -9 -15 14
-50 34 -50 24 0 189 90 255 140 59 45 67 47 101 24 32 -21 47 -10 40 29 -5 28
2 40 51 97 91 106 169 214 199 279 39 82 49 85 216 72 148 -12 629 -26 754
-22 44 1 111 9 148 17 38 8 80 14 94 14 14 0 88 25 163 55 75 30 142 55 148
55 30 0 81 36 105 74 34 55 34 68 -4 100 -32 27 -46 31 -67 17z m-1584 -324
c9 -10 2 -28 -26 -73 -41 -67 -113 -156 -120 -149 -3 3 19 56 49 120 53 115
71 134 97 102z"/>
<path d="M2684 5325 c-3 -8 -22 -19 -42 -26 -21 -7 -55 -27 -77 -44 -22 -18
-65 -47 -95 -66 -30 -18 -79 -52 -107 -77 -71 -59 -71 -81 2 -163 117 -131
186 -176 245 -159 80 23 104 83 115 285 4 72 7 139 6 150 0 11 -1 41 -1 68 -1
40 -4 47 -21 47 -11 0 -22 -7 -25 -15z m-5 -97 c-4 -280 -45 -408 -119 -368
-40 21 -165 132 -173 153 -13 33 16 75 86 130 59 45 184 124 200 126 4 1 7
-18 6 -41z"/>
<path d="M3108 5226 c-19 -14 -25 -56 -8 -56 5 0 19 -18 30 -39 11 -22 41 -59
67 -83 25 -24 54 -51 62 -60 17 -18 17 -17 80 -98 68 -87 124 -109 175 -69 37
29 33 40 -14 33 -65 -11 -84 0 -155 91 -36 47 -84 99 -106 117 -36 29 -99 133
-99 165 0 16 -10 16 -32 -1z"/>
<path d="M3310 5207 c0 -13 97 -110 163 -164 50 -42 23 -81 -32 -47 -37 24
-160 141 -188 179 -12 17 -25 27 -28 23 -16 -16 9 -58 81 -136 116 -126 184
-160 209 -104 7 16 18 22 42 22 26 0 33 4 33 20 0 11 -12 25 -27 34 -16 8 -70
53 -121 100 -87 80 -132 105 -132 73z"/>
<path d="M5272 5100 c-7 -12 -22 -67 -33 -123 -22 -112 -80 -306 -111 -377
-11 -25 -33 -72 -48 -105 -35 -74 -61 -144 -63 -169 -3 -31 22 -30 34 1 7 15
27 62 44 103 18 41 45 107 60 145 15 39 34 85 42 104 22 49 51 155 67 241 8
41 21 101 30 133 19 70 19 67 3 67 -7 0 -18 -9 -25 -20z"/>
<path d="M5788 5007 c-58 -40 -122 -82 -142 -95 -42 -26 -50 -62 -13 -62 28 0
85 34 110 66 10 13 25 24 32 24 13 0 132 93 147 114 8 13 1 26 -15 25 -7 0
-60 -32 -119 -72z"/>
<path d="M4956 5018 c-13 -24 -31 -79 -40 -123 -8 -44 -22 -111 -31 -150 -9
-38 -20 -93 -26 -122 -5 -28 -21 -84 -34 -124 -14 -40 -25 -85 -25 -101 0 -23
4 -28 25 -28 18 0 26 7 31 25 4 14 4 28 1 31 -3 3 -1 20 5 37 32 108 68 240
68 255 0 9 17 69 36 132 46 149 56 189 49 201 -13 20 -35 7 -59 -33z"/>
<path d="M4418 4977 c-75 -57 -60 -115 47 -186 36 -23 67 -46 71 -52 8 -14
-40 -64 -80 -83 -27 -13 -71 -14 -276 -9 -246 6 -400 -1 -400 -18 0 -5 7 -9
15 -9 8 0 15 -4 15 -10 0 -6 91 -10 253 -11 138 0 273 -4 299 -8 51 -8 184
-89 195 -118 12 -30 -81 -100 -192 -147 -154 -65 -137 -92 23 -36 126 45 196
92 228 152 21 40 18 55 -21 95 -19 20 -35 37 -35 38 0 2 21 -2 46 -7 50 -11
71 -1 61 27 -7 17 -12 19 -76 32 l-44 8 37 43 c57 69 53 78 -70 150 -91 53
-103 66 -79 92 9 10 39 26 65 35 75 25 77 55 4 55 -33 0 -52 -8 -86 -33z"/>
<path d="M5125 4918 c-16 -63 -43 -145 -101 -298 -16 -43 -18 -96 -4 -105 6
-4 22 1 35 9 25 17 33 42 15 48 -5 2 4 41 21 88 68 186 96 330 65 330 -9 0
-20 -26 -31 -72z"/>
<path d="M5884 4905 c-7 -16 -99 -69 -274 -157 -65 -33 -106 -60 -108 -70 -6
-29 35 -22 120 21 168 85 317 189 303 211 -9 15 -35 12 -41 -5z"/>
<path d="M5757 4623 c-24 -21 -54 -46 -66 -55 -25 -21 -27 -36 -6 -45 20 -7
118 58 141 93 15 22 15 27 3 35 -21 13 -24 12 -72 -28z"/>
<path d="M5473 4533 c-32 -12 5 -93 42 -93 18 0 45 -34 45 -58 0 -28 -17 -37
-36 -18 -17 17 -27 19 -61 10 -32 -9 -30 -42 2 -50 14 -3 25 -9 25 -13 0 -10
-82 -87 -106 -100 -47 -23 -224 -54 -419 -72 -165 -15 -642 -16 -735 -1 -36 5
-141 20 -235 32 -93 12 -192 30 -220 40 -27 9 -79 28 -115 40 -39 14 -82 38
-107 61 -24 22 -47 39 -52 39 -45 0 -56 -52 -18 -88 13 -12 27 -22 33 -22 5 0
52 -16 104 -36 135 -50 224 -72 347 -84 60 -6 133 -15 163 -20 30 -5 129 -14
218 -21 227 -18 676 1 874 35 172 30 169 29 254 87 81 54 134 124 134 174 0
19 -12 50 -30 76 -16 24 -30 49 -30 56 0 23 -47 39 -77 26z"/>
<path d="M3557 4489 c-159 -8 -243 -25 -267 -54 -15 -18 -6 -45 15 -45 9 0 13
5 10 10 -3 6 -5 10 -3 10 2 0 30 5 63 10 62 11 295 28 495 37 115 5 164 19
121 35 -25 9 -208 7 -434 -3z"/>
<path d="M5770 4223 c-24 -30 -200 -183 -211 -183 -12 0 -20 -33 -10 -43 14
-14 108 52 194 138 72 73 88 103 61 112 -7 2 -22 -8 -34 -24z"/>
<path d="M2947 4219 c-3 -12 -2 -45 3 -73 5 -28 14 -105 20 -171 7 -66 20
-165 31 -220 10 -55 19 -117 19 -137 0 -21 5 -70 11 -110 5 -40 14 -97 18
-127 5 -30 4 -72 -1 -95 -7 -29 -5 -52 6 -85 8 -26 20 -89 26 -141 6 -52 15
-124 20 -160 14 -88 29 -293 23 -303 -8 -13 17 -215 37 -302 17 -73 51 -259
64 -345 3 -19 10 -91 15 -160 13 -157 41 -269 84 -332 37 -55 55 -65 76 -44
13 14 12 19 -11 43 -63 67 -91 177 -108 418 -10 141 -21 204 -71 415 -13 54
-24 153 -30 270 -10 194 -26 340 -59 550 -10 69 -19 166 -19 215 -1 96 -20
269 -53 455 -11 63 -26 171 -33 240 -18 160 -32 220 -54 220 -5 0 -11 -10 -14
-21z"/>
<path d="M3100 4152 c0 -20 29 -52 48 -52 6 0 16 -9 22 -21 7 -11 27 -27 46
-35 24 -10 34 -21 34 -36 0 -35 64 -102 132 -138 62 -34 66 -34 185 -35 l123
-1 47 -46 c27 -25 72 -58 101 -73 58 -30 60 -30 309 -9 103 9 137 1 162 -41
21 -37 65 -55 84 -36 6 6 43 11 84 11 57 0 71 3 67 14 -8 21 -110 49 -155 43
-32 -4 -39 -2 -45 15 -15 47 -113 59 -310 38 -100 -11 -129 -11 -168 0 -25 7
-46 18 -46 24 0 6 -23 33 -50 60 -27 26 -48 52 -45 56 2 4 24 10 48 12 52 6
191 68 180 79 -4 4 -46 -1 -93 -11 -118 -27 -144 -26 -169 6 -12 15 -21 34
-21 44 0 9 -11 29 -25 44 -24 26 -29 27 -103 23 -42 -2 -105 -10 -140 -17 -50
-11 -68 -11 -83 -2 -10 7 -33 12 -49 12 -45 0 -91 26 -83 47 8 21 -22 43 -59
43 -21 0 -28 -5 -28 -18z m514 -124 c9 -12 16 -31 16 -42 0 -10 11 -34 25 -52
l26 -33 -25 -7 c-14 -3 -71 -4 -128 -2 -97 3 -106 5 -160 38 -31 19 -61 45
-67 58 -10 21 -8 22 32 23 23 0 74 9 112 19 102 26 150 25 169 -2z"/>
<path d="M4905 3965 c-27 -28 -53 -65 -56 -81 -11 -52 -9 -130 3 -142 36 -36
-99 -44 -186 -11 -73 28 -87 22 -80 -34 4 -28 2 -47 -5 -51 -6 -4 -11 -19 -11
-34 0 -15 -7 -49 -16 -77 -8 -27 -22 -86 -30 -130 -9 -44 -24 -98 -34 -120
-18 -40 -27 -72 -50 -186 -6 -31 -26 -80 -45 -110 -19 -30 -35 -58 -35 -62 0
-4 -16 -31 -35 -60 -38 -56 -47 -83 -75 -219 -13 -60 -29 -105 -54 -145 -40
-66 -80 -160 -90 -219 -4 -21 -11 -43 -15 -49 -4 -5 -20 -44 -35 -85 -15 -41
-34 -83 -43 -92 -11 -12 -13 -27 -8 -58 7 -41 7 -41 22 -20 9 12 21 41 29 64
7 22 26 73 43 112 16 40 36 99 45 133 8 33 30 88 48 121 18 34 45 83 60 110
23 43 35 95 54 225 2 17 34 75 70 130 77 117 102 174 119 270 23 126 52 249
79 333 14 45 28 107 30 138 3 31 8 59 11 62 3 3 30 -2 61 -12 36 -11 78 -17
118 -14 56 3 61 1 58 -17 -2 -11 -14 -37 -25 -58 -12 -21 -39 -69 -59 -105
-59 -104 -71 -134 -76 -184 -3 -34 0 -55 12 -72 27 -42 20 -87 -29 -177 -104
-191 -109 -207 -107 -289 6 -162 5 -176 -12 -210 -37 -77 -74 -140 -100 -170
-53 -64 -111 -227 -92 -259 13 -21 36 1 36 36 0 22 18 70 50 132 28 54 50 103
50 109 0 7 4 12 8 12 12 0 78 136 92 189 9 33 9 60 0 108 -8 46 -8 75 0 104
10 35 98 215 120 244 4 6 10 19 13 30 3 11 13 40 22 64 14 40 14 47 -1 87 -10
28 -14 57 -11 80 7 41 53 143 88 195 13 19 35 63 49 96 27 70 22 68 175 79
116 9 214 29 233 48 14 14 14 16 -2 22 -10 4 -48 2 -84 -4 -105 -17 -245 -24
-272 -14 -14 6 -33 26 -44 45 l-18 35 32 71 c18 39 41 78 51 87 18 17 27 55
12 53 -5 -1 -30 -25 -58 -54z"/>
<path d="M5371 3852 c-27 -39 -27 -44 9 -70 38 -29 64 -29 57 -1 -3 12 0 30 6
40 9 14 9 24 1 37 -18 29 -50 26 -73 -6z"/>
<path d="M5621 3742 c-77 -79 -110 -158 -49 -118 37 24 150 155 143 166 -13
21 -39 8 -94 -48z"/>
<path d="M3421 3596 c-14 -16 4 -367 23 -454 24 -109 37 -101 30 18 -14 256
-23 362 -33 374 -7 8 -6 20 3 38 12 22 12 27 1 32 -8 3 -18 -1 -24 -8z"/>
<path d="M5634 3578 c-19 -36 -76 -119 -111 -161 -26 -33 -29 -47 -9 -47 36 0
166 177 166 226 0 26 -29 14 -46 -18z"/>
<path d="M3164 3538 c8 -26 28 -193 28 -223 0 -36 29 -340 34 -358 3 -10 14
-62 24 -115 61 -326 76 -392 92 -392 4 0 8 12 8 26 0 35 -36 272 -60 394 -23
114 -35 206 -60 445 -18 180 -30 229 -58 240 -11 4 -13 0 -8 -17z"/>
<path d="M3750 3435 c-7 -8 -25 -15 -41 -15 -44 0 -72 -36 -66 -87 11 -107 89
-134 172 -62 37 32 43 59 29 128 -5 25 -11 31 -33 31 -15 0 -32 5 -37 10 -8 8
-15 6 -24 -5z m53 -68 c5 -15 6 -39 3 -53 -7 -27 -46 -50 -70 -41 -18 7 -22
62 -5 72 5 4 14 18 20 32 12 32 39 27 52 -10z"/>
<path d="M3305 3398 c-7 -30 17 -277 47 -493 11 -78 52 -180 84 -206 20 -16
19 20 -2 69 -23 54 -43 153 -54 272 -14 157 -37 343 -45 363 -10 24 -24 21
-30 -5z"/>
<path d="M5382 3400 c-18 -4 -36 -11 -40 -15 -4 -4 -8 -75 -9 -158 0 -84 -6
-213 -11 -287 -6 -74 -11 -149 -11 -166 -1 -25 -5 -30 -23 -30 -19 1 -23 -4
-21 -29 1 -16 -7 -76 -18 -131 -10 -56 -23 -146 -28 -200 -26 -270 -32 -325
-42 -399 -5 -44 -14 -105 -19 -135 -5 -30 -9 -76 -9 -101 -1 -30 -8 -55 -20
-70 -19 -24 -17 -59 4 -59 20 0 32 20 60 99 35 95 50 154 75 276 11 55 26 125
34 155 8 30 19 91 25 135 5 44 17 116 25 160 9 44 20 168 26 275 10 208 25
384 40 490 5 36 11 95 15 133 6 73 7 71 -53 57z"/>
<path d="M4987 3321 c-33 -35 -57 -69 -57 -81 0 -12 13 -35 29 -51 26 -25 37
-29 86 -29 49 0 60 4 86 30 35 35 32 60 -14 130 -52 77 -57 77 -130 1z m97
-11 c42 -46 44 -62 14 -90 -33 -30 -111 -21 -124 15 -6 15 51 115 66 115 4 0
24 -18 44 -40z"/>
<path d="M4187 3220 c-45 -14 -97 -58 -97 -83 0 -12 9 -33 19 -46 28 -36 84
-24 133 28 39 41 41 58 10 94 -17 19 -23 19 -65 7z m53 -54 c0 -19 -71 -77
-90 -74 -9 2 -15 15 -15 33 0 25 5 32 35 42 48 16 70 16 70 -1z"/>
<path d="M3733 3028 c-50 -59 -53 -65 -53 -119 0 -66 22 -101 75 -119 28 -9
39 -8 67 7 l33 18 -47 3 c-39 3 -51 8 -68 32 -14 19 -20 41 -18 62 3 30 6 32
41 34 56 1 68 27 13 27 -24 0 -24 1 -10 22 8 13 31 34 49 47 41 27 40 42 -1
46 -25 2 -37 -7 -81 -60z"/>
<path d="M4885 2714 c-34 -36 -40 -77 -19 -113 19 -33 39 -41 100 -41 50 0 64
14 64 62 0 39 -11 54 -68 101 -30 23 -49 21 -77 -9z m96 -44 c11 -6 19 -21 19
-35 0 -22 -4 -25 -38 -25 -48 0 -82 30 -62 55 14 17 53 20 81 5z"/>
<path d="M3447 2493 c-11 -10 -9 -49 8 -158 20 -140 35 -251 40 -313 2 -30 9
-124 16 -210 8 -102 18 -164 27 -177 29 -41 -2 408 -50 723 -21 135 -26 151
-41 135z"/>
<path d="M4640 2403 c-61 -22 -46 -126 22 -154 60 -25 80 53 33 124 -26 38
-29 39 -55 30z m34 -39 c24 -9 21 -64 -3 -64 -19 0 -37 42 -26 60 7 12 9 12
29 4z"/>
<path d="M3850 2370 c-12 -8 -11 -10 7 -10 32 0 78 -43 70 -64 -5 -13 -17 -16
-54 -14 l-48 3 2 43 c1 23 -2 42 -6 42 -17 0 -31 -27 -31 -60 0 -52 24 -70 93
-70 49 0 59 3 73 25 20 30 12 57 -27 90 -32 27 -54 31 -79 15z"/>
<path d="M3320 2231 c0 -32 7 -94 14 -137 8 -44 20 -130 26 -193 6 -63 13
-118 16 -123 9 -14 30 -9 47 10 22 24 22 40 0 38 -16 -1 -20 18 -35 139 -9 77
-22 156 -28 176 -5 20 -10 55 -10 77 0 45 -8 72 -21 72 -5 0 -9 -27 -9 -59z"/>
<path d="M4716 2068 c-32 -46 -10 -139 36 -152 41 -11 86 -6 102 10 24 24 20
86 -6 111 -21 20 -90 53 -109 53 -4 0 -15 -10 -23 -22z m98 -58 c25 -24 27
-31 16 -44 -24 -29 -65 -18 -99 26 -9 13 -10 22 -1 38 14 26 43 19 84 -20z"/>
<path d="M4334 1983 c-15 -21 -42 -55 -60 -75 -18 -20 -45 -62 -59 -93 -28
-58 -51 -75 -104 -75 -31 0 -51 16 -51 42 0 24 -17 23 -30 -1 -29 -56 2 -101
69 -101 61 0 111 32 149 93 46 74 53 85 95 151 55 88 48 135 -9 59z"/>
<path d="M4404 1838 c-40 -19 -58 -94 -30 -117 8 -7 37 -11 67 -9 43 2 55 8
72 30 13 17 17 33 12 45 -6 15 -8 15 -12 3 -16 -46 -85 -69 -112 -36 -17 21
21 62 66 71 36 8 37 8 13 15 -34 11 -51 10 -76 -2z"/>
<path d="M3586 1631 c-12 -18 3 -117 24 -167 38 -89 158 -184 233 -184 25 0
72 -13 237 -64 131 -41 174 -44 415 -26 83 6 202 12 265 14 137 3 246 18 282
37 58 31 111 93 150 175 21 45 44 84 50 86 14 5 -15 58 -32 58 -16 0 -59 -76
-69 -122 -13 -57 -81 -118 -181 -160 -81 -34 -97 -36 -325 -27 -107 5 -112 6
-205 52 -124 61 -226 138 -246 185 -17 42 -34 32 -27 -15 7 -43 116 -147 196
-188 32 -16 60 -32 62 -36 3 -3 -17 -9 -44 -13 -57 -7 -158 6 -256 35 -93 26
-176 48 -254 65 -127 27 -200 100 -247 243 -13 40 -24 60 -28 52z"/>
<path d="M4436 1543 c-14 -15 -4 -44 22 -60 15 -9 42 -30 61 -46 30 -26 186
-106 236 -120 11 -4 26 -3 34 2 15 10 7 31 -12 31 -7 0 -31 10 -52 21 -22 12
-67 35 -99 51 -59 29 -84 46 -150 100 -18 15 -36 25 -40 21z"/>
<path d="M4622 1534 c2 -12 18 -24 43 -32 22 -7 46 -19 55 -27 15 -13 150 -37
150 -26 -1 11 -176 92 -214 98 -34 5 -38 4 -34 -13z"/>
<path d="M6170 1454 c0 -14 5 -34 10 -45 8 -15 7 -21 -4 -25 -16 -6 -177 17
-281 41 -33 7 -67 13 -75 13 -8 0 -48 3 -87 7 -70 8 -73 7 -73 -14 0 -24 16
-32 99 -51 55 -13 121 -45 121 -60 0 -9 -122 -3 -210 12 -153 25 -158 24 -139
-30 9 -25 16 -30 57 -36 26 -4 67 -10 92 -14 25 -4 101 -3 170 1 69 4 195 6
280 3 152 -5 204 2 171 23 -17 11 -58 17 -200 32 -102 10 -181 36 -181 60 0 6
7 8 17 5 9 -4 68 -10 130 -13 95 -5 116 -4 126 9 11 14 24 14 107 2 52 -7 146
-16 208 -20 101 -6 112 -5 112 10 0 23 -28 33 -161 55 -64 11 -139 29 -168 40
-28 12 -67 21 -86 21 -31 0 -35 -3 -35 -26z"/>
<path d="M3310 1324 c0 -28 10 -50 41 -90 42 -55 56 -64 95 -64 33 0 32 34 -1
56 -13 9 -40 38 -59 64 -19 27 -44 54 -56 60 -18 10 -20 8 -20 -26z"/>
<path d="M3570 1140 c-13 -9 -9 -16 22 -44 41 -39 144 -74 237 -83 31 -2 92
-14 136 -24 84 -21 363 -43 515 -41 66 1 90 6 110 20 55 42 39 47 -185 54
-282 9 -328 13 -480 36 -142 22 -252 50 -302 75 -37 20 -34 19 -53 7z"/>
</g>
</svg>
